<?xml version="1.0" encoding="UTF-8"?>
<svg version="1.1" xmlns="http://www.w3.org/2000/svg" width="128" height="128">
<path d="M0 0 C12.71377326 9.27982807 21.28197343 23.52094682 24 39 C25.50641344 59.12776138 22.48528381 75.70069822 9.375 91.6875 C-0.33055079 101.99146625 -14.04620352 110.10534712 -28.36499023 111.17700195 C-48.69379704 111.68679619 -65.39196004 108.89838519 -80.83984375 94.34765625 C-95.01640239 78.94058257 -98.86699232 62.1564734 -98.17480469 41.68896484 C-97.23981713 27.30634897 -89.50073304 13.66207217 -79 4 C-55.95631521 -14.63692436 -24.735893 -17.124849 0 0 Z " fill="#299EE0" transform="translate(101,14)"/>
<path d="M0 0 C12.71377326 9.27982807 21.28197343 23.52094682 24 39 C25.50641344 59.12776138 22.48528381 75.70069822 9.375 91.6875 C-0.33055079 101.99146625 -14.04620352 110.10534712 -28.36499023 111.17700195 C-48.69379704 111.68679619 -65.39196004 108.89838519 -80.83984375 94.34765625 C-95.01640239 78.94058257 -98.86699232 62.1564734 -98.17480469 41.68896484 C-97.23981713 27.30634897 -89.50073304 13.66207217 -79 4 C-55.95631521 -14.63692436 -24.735893 -17.124849 0 0 Z M-82 11 C-88.55345194 19.24666362 -92.53955426 27.71885173 -95 38 C-95.19078125 38.63679688 -95.3815625 39.27359375 -95.578125 39.9296875 C-97.54488168 49.58136382 -96.01154037 59.76982431 -93 69 C-92.59974609 70.27617187 -92.59974609 70.27617187 -92.19140625 71.578125 C-86.81073254 86.78749603 -75.12703728 97.60539202 -60.88256836 104.45581055 C-47.23274497 110.68540034 -31.50863768 110.98256916 -17.27734375 106.3203125 C-1.31298953 99.88890401 10.96327799 88.70387063 17.8125 72.875 C23.99228855 57.64698862 23.72766389 41.81242517 17.62890625 26.57421875 C10.80851456 11.60861109 0.13206688 1.00757995 -15.24609375 -5.33984375 C-39.27356081 -13.76895517 -64.75889679 -8.04704528 -82 11 Z " fill="#1C2123" transform="translate(101,14)"/>
<path d="M0 0 C3.63 0 7.26 0 11 0 C10.34034961 6.86036401 8.7637236 13.34443923 7 20 C7.99580078 19.75443359 7.99580078 19.75443359 9.01171875 19.50390625 C12.62883337 18.89396143 16.15860708 18.89204487 19.8125 18.9375 C20.50537109 18.94201172 21.19824219 18.94652344 21.91210938 18.95117188 C23.60811068 18.96286844 25.30406703 18.98080076 27 19 C27 19.99 27 20.98 27 22 C23.04 22 19.08 22 15 22 C14.7525 22.825 14.505 23.65 14.25 24.5 C13.27339116 27.23450476 12.2564622 29.4244145 10.875 31.9375 C8.92180154 35.76342807 8.41644168 38.66499532 9 43 C9.95188837 45.28471711 9.95188837 45.28471711 12 47 C14.68528464 47.45781902 16.99651714 47.69472304 19.6875 47.75 C20.7403418 47.79447266 20.7403418 47.79447266 21.81445312 47.83984375 C23.54235424 47.91037033 25.2711832 47.95747068 27 48 C27 49.32 27 50.64 27 52 C14.11287104 52.6883333 14.11287104 52.6883333 10.3125 50.25 C8.20865487 48.20301555 6.98049963 46.74539897 6 44 C5.34 44 4.68 44 4 44 C3.34 45.98 2.68 47.96 2 50 C0.02 50 -1.96 50 -4 50 C-3.45698495 43.26661344 -2.08281039 37.42954512 0 31 C-3.3 31 -6.6 31 -10 31 C-7.90841678 23.90792397 -5.66977863 16.88285965 -3.3125 9.875 C-2.83200195 8.44027344 -2.83200195 8.44027344 -2.34179688 6.9765625 C-1.56259091 4.65057455 -0.78149639 2.3252194 0 0 Z " fill="#F7CC0A" transform="translate(39,35)"/>
<path d="M0 0 C1.05960938 0.00676758 1.05960938 0.00676758 2.140625 0.01367188 C3.88545275 0.02546125 5.630237 0.04339676 7.375 0.0625 C7.375 1.0525 7.375 2.0425 7.375 3.0625 C3.415 3.0625 -0.545 3.0625 -4.625 3.0625 C-4.8725 3.8875 -5.12 4.7125 -5.375 5.5625 C-6.35160884 8.29700476 -7.3685378 10.4869145 -8.75 13 C-10.70319846 16.82592807 -11.20855832 19.72749532 -10.625 24.0625 C-9.67311163 26.34721711 -9.67311163 26.34721711 -7.625 28.0625 C-4.93971536 28.52031902 -2.62848286 28.75722304 0.0625 28.8125 C1.1153418 28.85697266 1.1153418 28.85697266 2.18945312 28.90234375 C3.91735424 28.97287033 5.6461832 29.01997068 7.375 29.0625 C7.375 30.3825 7.375 31.7025 7.375 33.0625 C-5.51598663 33.75103935 -5.51598663 33.75103935 -9.25 31.3125 C-12.80806028 27.94170605 -14.7542989 25.93867128 -15.09375 20.9453125 C-15.1202233 19.35956176 -15.13012428 17.77346343 -15.125 16.1875 C-15.15335938 15.39730469 -15.18171875 14.60710937 -15.2109375 13.79296875 C-15.22493309 9.58729528 -14.91827646 6.87947193 -12.21875 3.5546875 C-8.18676836 -0.31941534 -5.34635511 -0.0641168 0 0 Z " fill="#E4F1F6" transform="translate(58.625,53.9375)"/>
<path d="M0 0 C14.86476101 -1.03307219 14.86476101 -1.03307219 19.375 2.8125 C23.97265574 7.58698865 23.33292768 13.33309009 23.28125 19.60546875 C22.82822828 25.07318929 20.58756112 27.45212791 16.8125 31.1328125 C13.20764297 33.52603703 10.9710844 33.410134 6.6875 33.25 C5.43324219 33.21390625 4.17898437 33.1778125 2.88671875 33.140625 C1.93410156 33.09421875 0.98148437 33.0478125 0 33 C0 31.68 0 30.36 0 29 C1.44632812 28.96132812 1.44632812 28.96132812 2.921875 28.921875 C4.18515625 28.86515625 5.4484375 28.8084375 6.75 28.75 C8.00296875 28.70359375 9.2559375 28.6571875 10.546875 28.609375 C13.97282429 28.22675942 13.97282429 28.22675942 16.421875 26.48828125 C18.73484995 22.84133808 18.58574142 19.67098253 18.5 15.4375 C18.51546875 14.66986328 18.5309375 13.90222656 18.546875 13.11132812 C18.52421856 9.86296083 18.48441234 7.60911255 16.421875 5.015625 C13.15983026 3.64767075 10.27714395 3.4757937 6.75 3.3125 C4.85507813 3.21388672 4.85507813 3.21388672 2.921875 3.11328125 C1.95765625 3.07589844 0.9934375 3.03851563 0 3 C0 2.01 0 1.02 0 0 Z " fill="#D9EEFA" transform="translate(74,44)"/>
<path d="M0 0 C0.33 0 0.66 0 1 0 C1.16435547 1.66289063 1.16435547 1.66289063 1.33203125 3.359375 C1.49152762 4.82298873 1.65172049 6.28652667 1.8125 7.75 C1.88275391 8.47960937 1.95300781 9.20921875 2.02539062 9.9609375 C2.59278841 15.69536396 2.59278841 15.69536396 6 20 C8.68528464 20.45781902 10.99651714 20.69472304 13.6875 20.75 C14.7403418 20.79447266 14.7403418 20.79447266 15.81445312 20.83984375 C17.54235424 20.91037033 19.2711832 20.95747068 21 21 C21 22.32 21 23.64 21 25 C8.10901337 25.68853935 8.10901337 25.68853935 4.375 23.25 C-0.89281364 18.25943971 -0.89281364 18.25943971 -1.328125 13.14453125 C-1.31755441 11.70032472 -1.29106414 10.25616131 -1.25 8.8125 C-1.24226563 7.70745117 -1.24226563 7.70745117 -1.234375 6.58007812 C-1.15451389 1.15451389 -1.15451389 1.15451389 0 0 Z " fill="#E1F1FA" transform="translate(45,62)"/>
<path d="M0 0 C0.99 0.33 1.98 0.66 3 1 C3.94921875 3.06640625 3.94921875 3.06640625 4.6875 5.5625 C5.06455078 6.80193359 5.06455078 6.80193359 5.44921875 8.06640625 C5.63097656 8.70449219 5.81273438 9.34257813 6 10 C4.906875 9.814375 3.81375 9.62875 2.6875 9.4375 C-0.93624133 8.7421932 -0.93624133 8.7421932 -4 10 C-3.52449439 8.51965236 -3.04448784 7.04074979 -2.5625 5.5625 C-2.29566406 4.73878906 -2.02882812 3.91507812 -1.75390625 3.06640625 C-1 1 -1 1 0 0 Z " fill="#D5EDFA" transform="translate(61,100)"/>
<path d="M0 0 C3.79594117 0.56426152 5.58710633 2.18251862 8.25 4.875 C8.95640625 5.57367188 9.6628125 6.27234375 10.390625 6.9921875 C12 9 12 9 12 12 C8.20405883 11.43573848 6.41289367 9.81748138 3.75 7.125 C3.04359375 6.42632812 2.3371875 5.72765625 1.609375 5.0078125 C0 3 0 3 0 0 Z " fill="#DFF1FA" transform="translate(59,59)"/>
<path d="M0 0 C-1.49170266 4.9723422 -3.60457417 9.41845739 -6 14 C-6.33 14 -6.66 14 -7 14 C-7.62485037 4.90495571 -7.62485037 4.90495571 -5.1875 1.375 C-3 0 -3 0 0 0 Z " fill="#F7C407" transform="translate(54,57)"/>
<path d="M0 0 C0 4.58228538 -2.91611967 6.8183381 -6 10 C-8.375 11.9375 -8.375 11.9375 -10 13 C-10.66 12.67 -11.32 12.34 -12 12 C-8.27653164 7.57905197 -4.70478962 3.42166518 0 0 Z " fill="#1A1B1B" transform="translate(112,100)"/>
<path d="M0 0 C0.66 0.33 1.32 0.66 2 1 C0.125 4.875 0.125 4.875 -1 6 C-1.23427778 8.01594582 -1.41336124 10.038474 -1.5625 12.0625 C-1.68818359 13.71958984 -1.68818359 13.71958984 -1.81640625 15.41015625 C-1.87699219 16.26480469 -1.93757813 17.11945313 -2 18 C-2.33 18 -2.66 18 -3 18 C-3.06058594 17.30132812 -3.12117188 16.60265625 -3.18359375 15.8828125 C-3.26738281 14.97273438 -3.35117187 14.06265625 -3.4375 13.125 C-3.51871094 12.22007813 -3.59992187 11.31515625 -3.68359375 10.3828125 C-3.86989285 7.98889139 -3.86989285 7.98889139 -5 6 C-3.35 4.02 -1.7 2.04 0 0 Z " fill="#FEF6D3" transform="translate(49,55)"/>
<path d="M0 0 C0.99 0 1.98 0 3 0 C1.9024777 2.99324263 1.32317108 3.84610901 -1.625 5.25 C-2.40875 5.4975 -3.1925 5.745 -4 6 C-2.84826645 3.53199953 -1.95216435 1.95216435 0 0 Z " fill="#F9CE1B" transform="translate(51,57)"/>
</svg>
